<?xml version="1.0" standalone="no"?>
<!DOCTYPE svg PUBLIC "-//W3C//DTD SVG 20010904//EN"
 "http://www.w3.org/TR/2001/REC-SVG-20010904/DTD/svg10.dtd">
<svg version="1.0" xmlns="http://www.w3.org/2000/svg"
 width="700.000000pt" height="700.000000pt" viewBox="0 0 700.000000 700.000000"
 preserveAspectRatio="xMidYMid meet">
<metadata>
Created by potrace 1.14, written by Peter Selinger 2001-2017
</metadata>
<g transform="translate(0.000000,700.000000) scale(0.100000,-0.100000)"
fill="#000000" stroke="none">
<path d="M970 6994 c-143 -22 -224 -46 -343 -102 -316 -148 -548 -452 -611
-800 -22 -118 -22 -5072 -1 -5182 55 -285 204 -524 430 -693 119 -89 296 -170
420 -193 11 -2 43 -8 70 -13 32 -7 964 -9 2595 -8 l2545 2 100 28 c199 56 356
147 499 290 155 154 240 305 299 527 l22 85 0 2560 c0 2041 -3 2571 -13 2615
-39 167 -113 334 -201 450 -59 78 -144 163 -226 225 -84 64 -262 149 -380 182
l-100 28 -2540 1 c-1397 1 -2551 0 -2565 -2z"/>
</g>
</svg>
