<?xml version="1.0" encoding="utf-8"?>
<!-- Generator: Adobe Illustrator 28.1.0, SVG Export Plug-In . SVG Version: 6.00 Build 0)  -->
<svg version="1.1" xmlns="http://www.w3.org/2000/svg" xmlns:xlink="http://www.w3.org/1999/xlink" x="0px" y="0px"
	 viewBox="0 0 256 256" style="enable-background:new 0 0 256 256;" xml:space="preserve">
<style type="text/css">
	.st0{fill:#FFFFFF;}
	.st1{fill:#FFFFFF;stroke:#000000;stroke-width:13.8853;stroke-miterlimit:10;}
	.st2{stroke:#FFFF00;stroke-width:13.8853;stroke-miterlimit:10;}
	.st3{fill:#004FFF;stroke:#000000;stroke-width:1.9594;stroke-miterlimit:10;}
	.st4{fill:#D01700;stroke:#000000;stroke-width:13.8853;stroke-miterlimit:10;}
	.st5{fill:#FFFB17;}
</style>
<g id="Base">
	<g>
		<path class="st0" d="M39.98,249.06c-18.22,0-33.04-14.82-33.04-33.04V39.98c0-18.22,14.82-33.04,33.04-33.04h176.04
			c18.22,0,33.04,14.82,33.04,33.04v176.04c0,18.22-14.82,33.04-33.04,33.04H39.98z"/>
		<path d="M216.02,13.89c14.39,0,26.09,11.71,26.09,26.09v176.04c0,14.39-11.71,26.09-26.09,26.09H39.98
			c-14.39,0-26.09-11.71-26.09-26.09V39.98c0-14.39,11.71-26.09,26.09-26.09H216.02 M216.02,0H39.98C17.99,0,0,17.99,0,39.98v176.04
			C0,238.01,17.99,256,39.98,256h176.04c21.99,0,39.98-17.99,39.98-39.98V39.98C256,17.99,238.01,0,216.02,0L216.02,0z"/>
	</g>
	<path class="st1" d="M141.5,220"/>
	<path class="st1" d="M155,206.5"/>
	<path class="st1" d="M97.64,198.19"/>
	<circle class="st2" cx="121.5" cy="34.5" r="3.5"/>
	<circle cx="162.06" cy="176.16" r="16.4"/>
	<circle class="st3" cx="158.71" cy="172.88" r="9.8"/>
	<circle class="st4" cx="43.5" cy="210.5" r="26.5"/>
</g>
<g id="letters">
	<g>
		<path d="M23.36,83.67c0-9.15-0.18-16.65-0.73-23.97H36.9l0.91,14.64h0.37c4.39-8.42,14.64-16.65,29.27-16.65
			c12.26,0,31.29,7.32,31.29,37.69v52.88h-16.1V97.21c0-14.27-5.31-26.16-20.49-26.16c-10.61,0-18.85,7.5-21.59,16.47
			c-0.73,2.01-1.1,4.76-1.1,7.5v53.24h-16.1V83.67z"/>
	</g>
	<g>
		<path d="M136.64,33.16c0.93,6.07-2.96,11.49-10.08,12.33c-6.3,0.75-11.36-3.6-12.08-9.69c-0.75-6.3,3.34-11.74,9.85-12.51
			C131.04,22.48,135.89,26.85,136.64,33.16z M131.73,161.57l-11.72-98.39l17.89-2.13l11.72,98.39L131.73,161.57z"/>
	</g>
	<g>
		<path d="M168.76,66.71c7.74,1.11,21.22,6.2,35.95,16.4c34.12,23.64,44.86,62.98,17.36,102.66
			c-26.25,37.89-65.72,66.77-103.25,40.77c-15.08-10.45-26.36-41.28-29-46.29l12.6-10.14c3.93,6.98,10.88,14.98,20.93,21.95
			c28.37,19.66,59.79,14.59,81.81-17.19c20.53-29.63,16.66-60.48-12.79-80.89c-9.52-6.59-20.58-11.34-28.98-12.64L168.76,66.71z"/>
	</g>
	<circle class="st5" cx="123" cy="34" r="5"/>
</g>
</svg>
